<?xml version="1.0" standalone="no"?>
<!DOCTYPE svg PUBLIC "-//W3C//DTD SVG 20010904//EN"
 "http://www.w3.org/TR/2001/REC-SVG-20010904/DTD/svg10.dtd">
<svg version="1.0" xmlns="http://www.w3.org/2000/svg"
 width="300.000000pt" height="300.000000pt" viewBox="0 0 300.000000 300.000000"
 preserveAspectRatio="xMidYMid meet">

<g transform="translate(0.000000,300.000000) scale(0.100000,-0.100000)"
fill="#000000" stroke="none">
<path d="M1265 2822 c-287 -74 -532 -330 -626 -654 -25 -85 -18 -128 20 -128
29 0 40 20 56 109 57 300 214 507 460 607 60 24 84 28 170 29 90 0 105 -3 151
-27 88 -46 141 -123 170 -245 22 -92 14 -300 -16 -443 -39 -185 -123 -406
-205 -538 l-27 -43 49 24 c40 21 55 37 90 98 227 397 289 863 143 1073 -42 61
-78 92 -143 122 -78 35 -192 41 -292 16z"/>
<path d="M941 2442 c-35 -29 -130 -292 -186 -511 -58 -230 -72 -454 -35 -573
36 -117 119 -185 235 -190 48 -2 60 0 63 13 2 13 -9 17 -56 21 -68 7 -106 24
-150 69 -113 116 -72 409 130 936 73 190 78 222 39 243 -14 7 -24 5 -40 -8z"/>
<path d="M1514 2263 c-44 -44 -223 -466 -320 -753 -59 -175 -58 -174 -145
-145 -45 15 -52 15 -73 2 -30 -20 -39 -53 -19 -72 10 -11 37 -15 90 -15 67 0
74 -2 68 -17 -33 -85 -95 -414 -95 -503 0 -93 35 -160 84 -160 37 0 38 24 3
90 -29 58 -31 68 -30 163 1 82 8 129 36 237 20 74 40 148 46 164 l12 29 192
-6 c269 -8 404 -39 548 -126 73 -44 121 -100 146 -171 20 -56 42 -65 67 -28
21 29 20 51 -3 97 -54 105 -224 191 -471 235 -70 13 -282 34 -364 37 -12 0 13
11 54 25 172 57 354 160 530 300 112 90 456 434 504 506 29 43 37 63 32 82
-13 54 -77 40 -96 -21 -20 -61 -91 -160 -202 -280 -196 -212 -385 -366 -568
-462 -127 -67 -340 -136 -340 -111 0 25 148 358 266 600 74 151 134 283 132
295 -4 27 -59 33 -84 8z"/>
<path d="M120 578 c-42 -23 -55 -63 -58 -187 -6 -185 22 -251 105 -251 33 0
50 6 67 23 62 62 57 352 -7 405 -23 19 -79 24 -107 10z m74 -53 c20 -20 29
-106 24 -215 -4 -95 -16 -120 -54 -120 -39 0 -48 33 -48 177 0 115 2 135 19
153 22 24 38 25 59 5z"/>
<path d="M608 575 c-15 -9 -31 -30 -38 -50 -19 -59 -5 -105 56 -174 42 -49 54
-69 54 -96 0 -55 -42 -81 -91 -55 -16 9 -19 7 -19 -13 0 -34 19 -47 65 -47 48
0 80 27 95 80 15 51 -3 99 -60 164 -39 44 -50 65 -50 91 0 54 36 78 81 55 16
-9 19 -7 19 14 0 43 -59 59 -112 31z"/>
<path d="M2410 577 c-43 -22 -55 -61 -58 -192 -5 -178 22 -245 99 -245 21 0
45 3 54 6 27 11 45 61 52 144 l6 80 -52 0 c-48 0 -51 -2 -51 -25 0 -20 5 -25
26 -25 26 0 27 -1 21 -51 -4 -28 -12 -57 -18 -65 -16 -20 -56 -17 -68 4 -28
52 -24 288 6 317 23 24 52 18 65 -12 7 -16 13 -29 14 -31 1 -2 12 1 23 8 29
15 26 36 -8 71 -32 32 -69 37 -111 16z"/>
<path d="M330 360 l0 -220 30 0 29 0 3 112 3 113 39 -112 c37 -108 40 -113 68
-113 15 0 28 2 28 5 0 2 -18 50 -40 105 -22 55 -40 109 -40 118 0 10 16 59 35
108 19 49 35 92 35 96 0 5 -11 8 -24 8 -21 0 -28 -12 -64 -107 l-41 -108 0
108 -1 107 -30 0 -30 0 0 -220z"/>
<path d="M842 518 c-7 -35 -27 -134 -46 -220 l-33 -158 28 0 c23 0 29 4 29 23
0 55 10 67 56 67 42 0 43 0 51 -42 7 -37 12 -43 36 -46 24 -3 27 -1 22 20 -8
38 -85 409 -85 414 0 2 -10 4 -23 4 -21 0 -25 -7 -35 -62z m63 -205 l6 -43
-37 0 c-34 0 -36 1 -31 28 3 15 12 63 19 107 l13 80 11 -65 c7 -36 15 -84 19
-107z"/>
<path d="M1020 360 l0 -220 32 0 31 0 -5 163 c-4 111 -3 151 4 127 5 -19 27
-92 49 -162 37 -119 41 -128 64 -128 l25 0 0 220 0 220 -25 0 -25 0 -1 -142 0
-143 -35 105 c-18 58 -39 122 -44 143 -9 32 -15 37 -40 37 l-30 0 0 -220z"/>
<path d="M1332 518 c-7 -35 -27 -134 -46 -220 l-33 -158 28 0 c23 0 29 4 29
23 0 55 10 67 56 67 42 0 43 0 51 -42 7 -37 12 -43 36 -46 24 -3 27 -1 22 20
-8 38 -85 409 -85 414 0 2 -10 4 -23 4 -21 0 -25 -7 -35 -62z m63 -205 l6 -43
-37 0 c-34 0 -36 1 -31 28 3 15 12 63 19 107 l13 80 11 -65 c7 -36 15 -84 19
-107z"/>
<path d="M1630 360 l0 -220 30 0 29 0 3 112 3 113 39 -112 c37 -108 40 -113
68 -113 15 0 28 2 28 5 0 2 -18 50 -40 105 -22 55 -40 109 -40 118 0 10 16 59
35 108 19 49 35 92 35 96 0 5 -11 8 -24 8 -21 0 -28 -12 -64 -107 l-41 -108 0
108 -1 107 -30 0 -30 0 0 -220z"/>
<path d="M1870 360 l0 -220 30 0 30 0 0 110 0 110 45 0 45 0 0 -110 0 -110 25
0 25 0 0 220 0 220 -25 0 c-25 0 -25 -1 -25 -85 l0 -85 -45 0 -45 0 0 85 0 85
-30 0 -30 0 0 -220z"/>
<path d="M2140 360 l0 -220 80 0 c79 0 80 0 80 25 0 23 -3 25 -50 25 l-50 0 0
75 0 75 40 0 c36 0 40 3 40 25 0 23 -4 25 -40 25 l-40 0 0 75 0 75 50 0 c43 0
50 3 50 20 0 18 -7 20 -80 20 l-80 0 0 -220z"/>
<path d="M2662 518 c-7 -35 -27 -134 -46 -220 l-33 -158 28 0 c23 0 29 4 29
23 0 55 10 67 56 67 42 0 43 0 51 -42 7 -37 12 -43 36 -46 24 -3 27 -1 22 20
-8 38 -85 409 -85 414 0 2 -10 4 -23 4 -21 0 -25 -7 -35 -62z m63 -205 l6 -43
-37 0 c-34 0 -36 1 -31 28 3 15 12 63 19 107 l13 80 11 -65 c7 -36 15 -84 19
-107z"/>
<path d="M2850 360 l0 -220 30 0 30 0 0 220 0 220 -30 0 -30 0 0 -220z"/>
</g>
</svg>
